grf
version=1
nRows=11
nColumns=46
inDegrees=yes
endheader
time	ground_force_1_vx	ground_force_1_vy	ground_force_1_vz	ground_force_1_px	ground_force_1_py	ground_force_1_pz	ground_moment_1_mx	ground_moment_1_my	ground_moment_1_mz	ground_force_2_vx	ground_force_2_vy	ground_force_2_vz	ground_force_2_px	ground_force_2_py	ground_force_2_pz	ground_moment_2_mx	ground_moment_2_my	ground_moment_2_mz	ground_force_3_vx	ground_force_3_vy	ground_force_3_vz	ground_force_3_px	ground_force_3_py	ground_force_3_pz	ground_moment_3_mx	ground_moment_3_my	ground_moment_3_mz	ground_force_4_vx	ground_force_4_vy	ground_force_4_vz	ground_force_4_px	ground_force_4_py	ground_force_4_pz	ground_moment_4_mx	ground_moment_4_my	ground_moment_4_mz	ground_force_5_vx	ground_force_5_vy	ground_force_5_vz	ground_force_5_px	ground_force_5_py	ground_force_5_pz	ground_moment_5_mx	ground_moment_5_my	ground_moment_5_mz
0.000000	0.000000	0.000000	0.000000	0.000000	0.000000	0.000000	0.000000	0.000000	0.000000	0.000000	0.000000	0.000000	0.000000	0.000000	0.000000	0.000000	0.000000	0.000000	0.000000	0.000000	0.000000	0.000000	0.000000	0.000000	0.000000	0.000000	0.000000	6.628058	519.672060	-130.324269	0.180974	0.000000	-0.892412	0.000000	3.714655	0.000000	-6.671869	515.517910	134.389474	0.214222	0.000000	-1.575538	-0.000000	-2.402201	-0.000000
0.000500	0.000000	0.000000	0.000000	0.000000	0.000000	0.000000	0.000000	0.000000	0.000000	0.000000	0.000000	0.000000	0.000000	0.000000	0.000000	0.000000	0.000000	0.000000	0.000000	0.000000	0.000000	0.000000	0.000000	0.000000	0.000000	0.000000	0.000000	6.655665	519.653549	-130.349002	0.180991	0.000000	-0.892372	0.000000	3.714300	0.000000	-6.641724	515.618527	134.347007	0.214215	0.000000	-1.575517	-0.000000	-2.394076	-0.000000
0.001000	0.000000	0.000000	0.000000	0.000000	0.000000	0.000000	0.000000	0.000000	0.000000	0.000000	0.000000	0.000000	0.000000	0.000000	0.000000	0.000000	0.000000	0.000000	0.000000	0.000000	0.000000	0.000000	0.000000	0.000000	0.000000	0.000000	0.000000	6.682857	519.634634	-130.374372	0.181008	0.000000	-0.892331	0.000000	3.714057	0.000000	-6.611289	515.719238	134.304521	0.214207	0.000000	-1.575496	-0.000000	-2.386025	-0.000000
0.001500	0.000000	0.000000	0.000000	0.000000	0.000000	0.000000	0.000000	0.000000	0.000000	0.000000	0.000000	0.000000	0.000000	0.000000	0.000000	0.000000	0.000000	0.000000	0.000000	0.000000	0.000000	0.000000	0.000000	0.000000	0.000000	0.000000	0.000000	6.709538	519.615291	-130.400354	0.181026	0.000000	-0.892289	0.000000	3.713935	0.000000	-6.580650	515.819794	134.262115	0.214198	0.000000	-1.575475	-0.000000	-2.378075	-0.000000
0.002000	0.000000	0.000000	0.000000	0.000000	0.000000	0.000000	0.000000	0.000000	0.000000	0.000000	0.000000	0.000000	0.000000	0.000000	0.000000	0.000000	0.000000	0.000000	0.000000	0.000000	0.000000	0.000000	0.000000	0.000000	0.000000	0.000000	0.000000	6.735613	519.595494	-130.426919	0.181045	0.000000	-0.892247	0.000000	3.713941	0.000000	-6.549888	515.919948	134.219885	0.214188	0.000000	-1.575454	-0.000000	-2.370252	-0.000000
0.002500	0.000000	0.000000	0.000000	0.000000	0.000000	0.000000	0.000000	0.000000	0.000000	0.000000	0.000000	0.000000	0.000000	0.000000	0.000000	0.000000	0.000000	0.000000	0.000000	0.000000	0.000000	0.000000	0.000000	0.000000	0.000000	0.000000	0.000000	6.760994	519.575224	-130.454039	0.181064	0.000000	-0.892205	0.000000	3.714083	0.000000	-6.519072	516.019462	134.177915	0.214178	0.000000	-1.575433	-0.000000	-2.362580	-0.000000
0.003000	0.000000	0.000000	0.000000	0.000000	0.000000	0.000000	0.000000	0.000000	0.000000	0.000000	0.000000	0.000000	0.000000	0.000000	0.000000	0.000000	0.000000	0.000000	0.000000	0.000000	0.000000	0.000000	0.000000	0.000000	0.000000	0.000000	0.000000	6.785600	519.554463	-130.481685	0.181084	0.000000	-0.892163	0.000000	3.714367	0.000000	-6.488266	516.118102	134.136280	0.214167	0.000000	-1.575411	-0.000000	-2.355078	-0.000000
0.003500	0.000000	0.000000	0.000000	0.000000	0.000000	0.000000	0.000000	0.000000	0.000000	0.000000	0.000000	0.000000	0.000000	0.000000	0.000000	0.000000	0.000000	0.000000	0.000000	0.000000	0.000000	0.000000	0.000000	0.000000	0.000000	0.000000	0.000000	6.809357	519.533190	-130.509834	0.181104	0.000000	-0.892120	-0.000000	3.714798	0.000000	-6.457521	516.215647	134.095047	0.214155	0.000000	-1.575390	-0.000000	-2.347764	-0.000000
0.004000	0.000000	0.000000	0.000000	0.000000	0.000000	0.000000	0.000000	0.000000	0.000000	0.000000	0.000000	0.000000	0.000000	0.000000	0.000000	0.000000	0.000000	0.000000	0.000000	0.000000	0.000000	0.000000	0.000000	0.000000	0.000000	0.000000	0.000000	6.832201	519.511379	-130.538464	0.181125	0.000000	-0.892077	-0.000000	3.715382	0.000000	-6.426886	516.311898	134.054265	0.214143	0.000000	-1.575369	-0.000000	-2.340652	-0.000000
0.004500	0.000000	0.000000	0.000000	0.000000	0.000000	0.000000	0.000000	0.000000	0.000000	0.000000	0.000000	0.000000	0.000000	0.000000	0.000000	0.000000	0.000000	0.000000	0.000000	0.000000	0.000000	0.000000	0.000000	0.000000	0.000000	0.000000	0.000000	6.854076	519.488995	-130.567557	0.181146	0.000000	-0.892034	-0.000000	3.716122	0.000000	-6.396404	516.406689	134.013976	0.214130	0.000000	-1.575347	-0.000000	-2.333752	-0.000000
0.005000	0.000000	0.000000	0.000000	0.000000	0.000000	0.000000	0.000000	0.000000	0.000000	0.000000	0.000000	0.000000	0.000000	0.000000	0.000000	0.000000	0.000000	0.000000	0.000000	0.000000	0.000000	0.000000	0.000000	0.000000	0.000000	0.000000	0.000000	6.874935	519.466006	-130.597098	0.181168	0.000000	-0.891991	-0.000000	3.717023	0.000000	-6.366108	516.499883	133.974215	0.214116	0.000000	-1.575326	-0.000000	-2.327071	-0.000000
